<?xml version="1.0" encoding="UTF-8"?>
<svg version="1.1" xmlns="http://www.w3.org/2000/svg" width="1920" height="327" fill="FFFFFF">
<path d="M0 0 C2.93602223 7.09632421 5.51987834 14.26289997 7.92578125 21.5546875 C8.27762985 22.61865753 8.62947845 23.68262756 8.99198914 24.77883911 C9.72738493 27.00852566 10.4609074 29.23883087 11.19262695 31.46972656 C12.31722874 34.88937899 13.45638484 38.30397692 14.59570312 41.71875 C15.31079816 43.89293259 16.02502219 46.0674019 16.73828125 48.2421875 C17.08087479 49.261987 17.42346832 50.2817865 17.77644348 51.33248901 C18.23768867 52.75514572 18.23768867 52.75514572 18.70825195 54.20654297 C18.98264603 55.03797821 19.2570401 55.86941345 19.53974915 56.7260437 C20.03949691 59.19514197 19.80636391 60.63894003 19 63 C18.38406982 63.13462646 17.76813965 63.26925293 17.13354492 63.40795898 C-51.55620357 78.63512417 -118.6624156 115.22852341 -162 172 C-163.02391479 173.30793777 -164.04872621 174.6151739 -165.07421875 175.921875 C-176.68478018 190.80275308 -186.48247854 206.23356292 -195.70605469 222.6953125 C-197.45311768 225.80706244 -199.22493579 228.90415342 -201 232 C-204.08381789 231.37731013 -206.30669084 230.35806433 -208.94921875 228.6640625 C-210.08351318 227.94234863 -210.08351318 227.94234863 -211.24072266 227.20605469 C-212.04815918 226.68430664 -212.8555957 226.16255859 -213.6875 225.625 C-214.53618652 225.08262695 -215.38487305 224.54025391 -216.25927734 223.98144531 C-218.84363397 222.32726439 -221.42267002 220.66510343 -224 219 C-224.70882324 218.54270508 -225.41764648 218.08541016 -226.14794922 217.61425781 C-228.8137841 215.8933169 -231.47821018 214.17026833 -234.13891602 212.44140625 C-238.53830317 209.58411953 -242.95192007 206.75018334 -247.375 203.9296875 C-247.9312204 203.57483276 -248.4874408 203.21997803 -249.06051636 202.85437012 C-251.82555637 201.09046271 -254.59173907 199.32840053 -257.35986328 197.56933594 C-262.67949263 194.1766937 -267.91258212 190.73269471 -273 187 C-272.41662052 182.31501401 -270.38386734 178.65036536 -268.0625 174.625 C-267.4586145 173.56889526 -267.4586145 173.56889526 -266.8425293 172.49145508 C-255.81357581 153.4511243 -242.58297275 135.46042133 -228 119 C-226.80117187 117.63488281 -226.80117187 117.63488281 -225.578125 116.2421875 C-213.36141285 102.62169166 -200.52283308 89.16644499 -186 78 C-184.99582031 77.15566406 -183.99164063 76.31132812 -182.95703125 75.44140625 C-165.62985599 60.90974909 -146.07404456 48.36238744 -126 38 C-125.36191406 37.66387695 -124.72382813 37.32775391 -124.06640625 36.98144531 C-87.87450293 17.94183973 -41.58616506 -1.22025132 0 0 Z " fill="#FFFFFF" transform="translate(310,82)"/>
<path d="M0 0 C118.25626204 0 118.25626204 0 144.80859375 24.65234375 C160.69848285 41.67520177 166.84251502 64.34640775 169 87 C169.11085938 88.11246094 169.22171875 89.22492188 169.3359375 90.37109375 C171.95215725 120.95258136 171.99306137 163.19264655 151.77099609 188.54052734 C148.67576961 192.19202333 145.37628174 195.60873476 142 199 C141.43796875 199.59683594 140.8759375 200.19367188 140.296875 200.80859375 C136.51662951 204.47941108 131.96557358 206.74910168 127.3125 209.125 C126.35984253 209.61274902 126.35984253 209.61274902 125.38793945 210.11035156 C87.96509838 228.41900045 37.85134605 221 0 221 C0 148.07 0 75.14 0 0 Z M41 37 C41 85.51 41 134.02 41 184 C79.14594347 185.98750475 79.14594347 185.98750475 112.5 170.3125 C130.02626883 150.87222751 128.10563863 118.51388497 126.859375 94.26367188 C125.93938366 80.89243407 123.66507719 67.28281273 116 56 C115.59394531 55.38769531 115.18789063 54.77539062 114.76953125 54.14453125 C106.69413296 43.41680273 93.59827158 40.04832038 81 38 C67.7085716 36.89238097 54.33749935 37 41 37 Z " fill="#FFFFFF" transform="translate(438,46)"/>
<path d="M0 0 C16.44774166 15.78141523 22.31455997 39.16433279 22.86328125 61.23828125 C22.88269531 63.82545094 22.88627188 66.41278202 22.875 69 C22.87176727 70.01639053 22.87176727 70.01639053 22.86846924 71.05331421 C22.74501307 95.30674269 17.95789232 119.20949866 0.91015625 137.3671875 C-11.5489437 149.68117314 -26.40141796 154.91800953 -43.75 155.125 C-58.99323071 155.02520357 -69.34506207 150.73371896 -83.4375 143.6875 C-83.7675 165.4675 -84.0975 187.2475 -84.4375 209.6875 C-96.6475 209.6875 -108.8575 209.6875 -121.4375 209.6875 C-121.4375 137.7475 -121.4375 65.8075 -121.4375 -8.3125 C-110.8775 -8.3125 -100.3175 -8.3125 -89.4375 -8.3125 C-88.7775 -3.3625 -88.1175 1.5875 -87.4375 6.6875 C-86.07625 5.346875 -84.715 4.00625 -83.3125 2.625 C-60.67814982 -17.73309117 -23.77697016 -19.37891787 0 0 Z M-77.4375 31.6875 C-78.02464783 32.07217438 -78.61179565 32.45684875 -79.21673584 32.85317993 C-82.68010378 35.58123814 -84.2384447 37.68292574 -85.1068573 42.06555176 C-85.3822342 46.37364373 -85.43888556 50.63088486 -85.40234375 54.9453125 C-85.40960704 56.53759727 -85.41879843 58.1298743 -85.42982483 59.72213745 C-85.44461342 63.04944265 -85.43374158 66.37543196 -85.4050293 69.70263672 C-85.37067998 73.96195175 -85.40415739 78.21761205 -85.45723629 82.47662544 C-85.49006687 85.76086962 -85.48515569 89.0442424 -85.4690876 92.32857895 C-85.46627228 93.89864497 -85.47555552 95.4687821 -85.49729729 97.0387001 C-85.94139035 105.4300855 -85.94139035 105.4300855 -82.69355774 112.73840332 C-80.62449891 114.06366715 -78.76473983 114.92114988 -76.4375 115.6875 C-75.44363281 116.12578125 -74.44976563 116.5640625 -73.42578125 117.015625 C-72.54277344 117.31984375 -71.65976562 117.6240625 -70.75 117.9375 C-69.41388672 118.40929687 -69.41388672 118.40929687 -68.05078125 118.890625 C-56.95735403 122.27337411 -45.45440174 121.68934716 -35.06640625 116.50390625 C-25.46662941 110.78936793 -21.16485946 102.33997671 -18.1640625 91.86328125 C-13.96093514 73.49154716 -14.27319357 50.48467704 -23.4375 33.6875 C-28.14807502 27.16787622 -34.38905158 24.20203453 -41.9375 21.9375 C-55.14388337 20.61686166 -66.65247552 23.80669727 -77.4375 31.6875 Z " fill="#FFFFFF" transform="translate(1066.4375,117.3125)"/>
<path d="M0 0 C8.45767334 -0.02312659 16.91533356 -0.0409167 25.37303066 -0.05181217 C29.29988658 -0.05704031 33.22672094 -0.06413669 37.15356445 -0.07543945 C40.94014257 -0.0862708 44.7266999 -0.09227736 48.51329231 -0.09487724 C49.96104319 -0.09673105 51.40879288 -0.10035081 52.85653496 -0.10573006 C54.87757135 -0.11294367 56.89862848 -0.11340808 58.91967773 -0.11352539 C60.64842384 -0.11685631 60.64842384 -0.11685631 62.41209412 -0.12025452 C65 -0 65 -0 66 1 C66.30460741 3.54238874 66.54886334 6.06721206 66.75610352 8.61816406 C66.82452454 9.41672821 66.89294556 10.21529236 66.96343994 11.03805542 C67.18991849 13.69687447 67.40963451 16.35620257 67.62890625 19.015625 C67.78417609 20.86637373 67.93969201 22.71710182 68.09544373 24.56781006 C68.42203806 28.46162833 68.7452324 32.3557109 69.06616211 36.25 C69.4752171 41.20971612 69.89312342 46.1686379 70.31375217 51.12738419 C70.6376252 54.95868336 70.95636458 58.79039716 71.27366447 62.62224579 C71.42552409 64.44817419 71.57899808 66.27396914 71.7341938 68.099617 C72.58110338 78.09520058 73.24510863 87.96043031 73 98 C72.21627014 98.26701218 71.43254028 98.53402435 70.62506104 98.80912781 C37.13652995 110.24557538 4.94651417 124.39438689 -24 145 C-24.56605957 145.4017041 -25.13211914 145.8034082 -25.71533203 146.21728516 C-36.57246551 153.98846304 -47.13588868 162.40718774 -55.90234375 172.515625 C-58 174 -58 174 -60.67041016 173.77539062 C-64.41910281 172.90239987 -67.84577778 171.5870405 -71.37109375 170.078125 C-72.43218353 169.63320206 -72.43218353 169.63320206 -73.51470947 169.17929077 C-75.824919 168.20893742 -78.13119921 167.22960281 -80.4375 166.25 C-82.03792144 165.57542546 -83.63859172 164.90144103 -85.23950195 164.22802734 C-88.52746888 162.84412004 -91.81399419 161.45686362 -95.09960938 160.06738281 C-99.80500139 158.07943504 -104.51845321 156.11125059 -109.234375 154.1484375 C-111.36987074 153.25842527 -113.50527611 152.36819658 -115.64065552 151.47790527 C-117.00343885 150.91004333 -118.36645524 150.34274033 -119.72970581 149.77600098 C-121.61636719 148.99106444 -123.50158392 148.20265823 -125.38671875 147.4140625 C-126.45108154 146.9701416 -127.51544434 146.5262207 -128.61206055 146.06884766 C-131 145 -131 145 -132 144 C-131.60301301 136.49916202 -129.59560593 129.90802915 -127.21875 122.81640625 C-126.84520386 121.67968979 -126.47165771 120.54297333 -126.08679199 119.37181091 C-124.89941864 115.76593164 -123.69971363 112.16428979 -122.5 108.5625 C-121.69323629 106.11548947 -120.8872387 103.6682262 -120.08203125 101.22070312 C-118.61186108 96.76487837 -117.14101133 92.30930276 -115.65820312 87.85766602 C-115.21305359 86.51938499 -115.21305359 86.51938499 -114.75891113 85.15406799 C-114 83 -114 83 -113 81 C-100.20938578 83.63249594 -87.48561707 86.47560379 -74.78515625 89.51171875 C-73.02832402 89.92979886 -71.27144122 90.34766651 -69.51451111 90.76533508 C-64.95700775 91.8493907 -60.40021298 92.93639532 -55.84356689 94.02404785 C-51.18328156 95.13580691 -46.52225737 96.24445983 -41.86132812 97.35351562 C-35.0726464 98.96947282 -28.2841473 100.58619271 -21.49633789 102.20581055 C-20.79250977 102.37359512 -20.08868164 102.5413797 -19.36352539 102.71424866 C-16.23827529 103.4603801 -13.11477457 104.21115053 -10 105 C-8.62333644 93.22515067 -7.47348503 81.44874924 -6.52273369 69.63209724 C-6.3023412 66.89500474 -6.07836363 64.15822469 -5.85353088 61.42149353 C-5.21629502 53.65679421 -4.58573511 45.89155569 -3.95629883 38.1262207 C-3.56806472 33.3395651 -3.17623693 28.55321423 -2.78227425 23.7670269 C-2.56172091 21.07334913 -2.34545503 18.37934829 -2.1292572 15.68531799 C-1.99452823 14.04548238 -1.85957664 12.40566504 -1.72436523 10.76586914 C-1.66564743 10.01947174 -1.60692963 9.27307434 -1.5464325 8.50405884 C-1.29353947 5.48565322 -0.96239193 2.88717578 0 0 Z " fill="#FFFFFF" transform="translate(132,0)"/>
<path d="M0 0 C14.71391936 13.31043782 20.63415961 34.09835959 21.64724731 53.35302734 C21.78194694 57.64644528 21.78208232 61.93740859 21.74487305 66.23242188 C21.72628931 68.45454084 21.72436646 70.67624787 21.72460938 72.8984375 C21.68746614 83.70326043 21.68746614 83.70326043 20.5390625 88.296875 C-12.1309375 88.296875 -44.8009375 88.296875 -78.4609375 88.296875 C-73.71600429 104.94697345 -73.71600429 104.94697345 -61.828125 116.1171875 C-53.41663996 120.30904968 -44.95466164 121.50948229 -35.6484375 121.546875 C-34.77348633 121.55082275 -33.89853516 121.55477051 -32.99707031 121.55883789 C-22.35912102 121.47147918 -11.79360137 120.36008849 -1.21948242 119.27636719 C-0.51480331 119.20565506 0.18987579 119.13494293 0.91590881 119.06208801 C2.85430961 118.86624189 4.79192979 118.66271399 6.72949219 118.45874023 C7.65665039 118.40532471 8.58380859 118.35190918 9.5390625 118.296875 C10.5390625 119.296875 10.5390625 119.296875 10.65258789 122.25610352 C10.64735107 123.54959717 10.64211426 124.84309082 10.63671875 126.17578125 C10.63459633 127.20577492 10.63459633 127.20577492 10.63243103 128.25657654 C10.62681729 130.45755301 10.61426257 132.65842909 10.6015625 134.859375 C10.59654926 136.34830583 10.59198605 137.83723824 10.58789062 139.32617188 C10.57684343 142.98310575 10.55956963 146.63998058 10.5390625 150.296875 C-21.15271803 156.9128589 -60.7143776 159.93137465 -89.09375 141.93359375 C-105.43621188 130.63410278 -112.95226278 113.8468202 -116.6015625 94.79296875 C-117.69845856 87.7706124 -117.79785545 80.77766578 -117.77661133 73.68920898 C-117.77345621 71.49737479 -117.79698942 69.30690261 -117.82226562 67.11523438 C-117.9231127 44.44213966 -111.6370752 20.94470111 -95.4609375 4.296875 C-70.12805176 -18.41791047 -27.2724383 -20.90624953 0 0 Z M-69.4609375 27.296875 C-77.24601757 37.43972218 -77.84838085 47.39642178 -79.4609375 60.296875 C-58.6709375 60.296875 -37.8809375 60.296875 -16.4609375 60.296875 C-16.4609375 47.44299659 -17.07917522 35.6174094 -25.4609375 25.296875 C-32.46904779 18.62022938 -40.30165505 17.84224866 -49.69140625 17.98046875 C-57.60597839 18.64480071 -63.93720848 21.64468717 -69.4609375 27.296875 Z " fill="#FFFFFF" transform="translate(1788.4609375,117.703125)"/>
<path d="M0 0 C16.11354072 13.85852076 24.34139742 32.93396382 26 54 C27.30484137 81.96520894 26.54113732 111.3875816 7.3125 133.75 C-5.36393962 147.05173485 -22.99871576 153.62835633 -41.14453125 154.28515625 C-61.57271053 154.70145102 -80.20469237 152.6911911 -97 140 C-97.99773438 139.28457031 -97.99773438 139.28457031 -99.015625 138.5546875 C-113.21732239 127.4281608 -120.25781533 107.73700139 -122.53125 90.37109375 C-125.26922359 63.64992342 -124.45489753 32.34053339 -106.93359375 10.4140625 C-82.21747827 -18.21364691 -30.33283952 -23.87808349 0 0 Z M-77.25 31.625 C-87.35885728 51.12065333 -87.32882795 77.67891911 -81.2265625 98.46484375 C-78.4420913 106.49015088 -74.28575601 113.37752455 -67 118 C-56.71677337 122.98461749 -44.97265411 123.63034072 -34.1796875 119.90625 C-26.28542142 116.62404618 -20.42441187 110.25264478 -16.94116211 102.49755859 C-12.99346336 92.02156425 -12.4631434 81.19898425 -12.5625 70.125 C-12.56606506 69.07566284 -12.56606506 69.07566284 -12.56970215 68.00512695 C-12.6252197 57.55947068 -13.21893032 47.85171443 -17 38 C-17.30035156 37.18402344 -17.60070312 36.36804688 -17.91015625 35.52734375 C-21.11425167 28.10660327 -26.89077822 23.10615277 -34.10546875 19.7265625 C-50.30253848 13.51490277 -66.37578107 18.93841125 -77.25 31.625 Z " fill="#FFFFFF" transform="translate(751,118)"/>
<path d="M0 0 C1.37351613 -0.00738837 2.74701959 -0.01796184 4.1204834 -0.03204346 C22.4504183 -0.20266561 41.93433061 1.52192833 56.10125732 14.39889526 C72.34391122 31.31162564 71.092495 53.76692761 70.94891357 75.67623901 C70.9433072 78.2092768 70.93904204 80.74231788 70.93605042 83.27536011 C70.92583992 89.21770292 70.90229505 95.1598941 70.87200195 101.1021595 C70.83822153 107.87867735 70.82191314 114.65520421 70.80691564 121.43178558 C70.77573671 135.34671403 70.72082116 149.26142896 70.65594482 163.17623901 C59.43594482 163.17623901 48.21594482 163.17623901 36.65594482 163.17623901 C35.99594482 158.88623901 35.33594482 154.59623901 34.65594482 150.17623901 C33.92891357 150.7679187 33.20188232 151.35959839 32.45281982 151.96920776 C17.21057164 163.94805153 0.16771901 168.3993334 -19.08624268 166.97311401 C-29.83134413 165.66204063 -42.15345187 160.60851866 -49.34405518 152.17623901 C-60.34669965 137.5295563 -62.65705144 122.03942791 -61.34405518 104.17623901 C-59.1723586 91.95268973 -53.08493392 80.95020955 -43.34405518 73.17623901 C-21.02881207 57.63526614 5.84571776 58.60437915 31.65594482 63.17623901 C32.43086499 51.69279081 32.43086499 51.69279081 28.65594482 41.17623901 C22.7170384 34.88798515 14.8442584 33.98632945 6.58172607 33.53561401 C5.79915436 33.49291885 5.01658264 33.45022369 4.21029663 33.40623474 C-5.04684213 32.98746514 -14.23050535 33.53555012 -23.46905518 34.11373901 C-25.21769931 34.21557813 -26.9663975 34.31649348 -28.71514893 34.41647339 C-32.92568111 34.65747357 -37.13444515 34.91715315 -41.34405518 35.17623901 C-41.34405518 24.28623901 -41.34405518 13.39623901 -41.34405518 2.17623901 C-27.73253501 -0.09234768 -13.77451439 0.06804532 0 0 Z M-17.25421143 99.23873901 C-22.47167731 105.9486715 -23.10123185 111.7726444 -22.34405518 120.17623901 C-20.64132791 126.13091952 -17.35189517 129.70141127 -12.34405518 133.17623901 C-3.26537418 137.95449217 6.25622015 135.83726087 15.65594482 133.17623901 C19.85520472 131.4794726 23.80269625 129.55687144 27.65594482 127.17623901 C28.52420898 126.64023071 29.39247314 126.10422241 30.28704834 125.55197144 C32.96940213 122.86187716 33.22456439 121.42857075 33.22242737 117.69168091 C33.19662094 116.99049133 33.17081451 116.28930176 33.14422607 115.56686401 C33.13361397 114.47664948 33.13361397 114.47664948 33.12278748 113.3644104 C33.09487213 111.05062444 33.03214865 108.73928903 32.96844482 106.42623901 C32.94335782 104.85465947 32.92054534 103.28304186 32.90008545 101.71139526 C32.84505615 97.86540381 32.75881148 94.02123636 32.65594482 90.17623901 C30.7790727 89.84523804 28.90128151 89.51944644 27.02313232 89.19577026 C25.45474609 88.922771 25.45474609 88.922771 23.85467529 88.64425659 C9.79915248 86.58774329 -7.11589103 88.29184091 -17.25421143 99.23873901 Z " fill="#FFFFFF" transform="translate(1238.3440551757813,103.82376098632813)"/>
<path d="M0 0 C10.63574948 8.64907175 15.42155489 21.11415285 17.6953125 34.37109375 C17.78001246 36.06311903 17.81737122 37.7579597 17.81556702 39.45210266 C17.81762901 40.95171791 17.81762901 40.95171791 17.81973267 42.48162842 C17.81613739 43.56703918 17.81254211 44.65244995 17.80883789 45.77075195 C17.80898392 46.92240341 17.80912994 48.07405487 17.8092804 49.26060486 C17.80858414 53.06438078 17.80080513 56.86810764 17.79296875 60.671875 C17.79110355 63.31031772 17.78968013 65.94876079 17.78868103 68.58720398 C17.78557597 74.82025615 17.77737371 81.05329073 17.76733154 87.28633517 C17.75614477 94.384258 17.75065349 101.48218169 17.74563611 108.58011115 C17.73519041 123.1771157 17.71685519 137.77410123 17.6953125 152.37109375 C5.4853125 152.37109375 -6.7246875 152.37109375 -19.3046875 152.37109375 C-19.31927002 149.2834668 -19.33385254 146.19583984 -19.34887695 143.01464844 C-19.39935184 132.78069681 -19.4659695 122.54689528 -19.54040241 112.31309128 C-19.58501328 106.11206121 -19.62428984 99.91109544 -19.65112305 93.70996094 C-19.67724862 87.71868929 -19.71771631 81.72766632 -19.76787376 75.73654938 C-19.78448002 73.457808 -19.79603296 71.17902367 -19.80230141 68.90023041 C-19.0666053 48.76463437 -19.0666053 48.76463437 -26.75390625 30.7734375 C-32.86465671 25.24759515 -39.90643187 24.71740961 -47.87890625 25 C-59.02827583 26.20774243 -66.17238794 32.463552 -73.34765625 40.72265625 C-83.04873614 53.42300391 -82.90755612 67.30773009 -82.9140625 82.546875 C-82.92907011 84.56855069 -82.9458026 86.59021424 -82.96417236 88.61186218 C-83.00756836 93.89053969 -83.02778301 99.16905188 -83.04290771 104.44787598 C-83.06257956 109.85141666 -83.10453778 115.2547814 -83.14453125 120.65820312 C-83.21953248 131.22914182 -83.26794145 141.79995279 -83.3046875 152.37109375 C-95.8446875 152.37109375 -108.3846875 152.37109375 -121.3046875 152.37109375 C-121.3046875 100.23109375 -121.3046875 48.09109375 -121.3046875 -5.62890625 C-110.4146875 -5.62890625 -99.5246875 -5.62890625 -88.3046875 -5.62890625 C-87.6446875 -0.34890625 -86.9846875 4.93109375 -86.3046875 10.37109375 C-85.8096875 11.36109375 -85.8096875 11.36109375 -85.3046875 12.37109375 C-84.85480469 11.80261719 -84.40492187 11.23414062 -83.94140625 10.6484375 C-63.8248752 -13.4994625 -25.6278993 -18.11327798 0 0 Z " fill="#FFFFFF" transform="translate(1459.3046875,114.62890625)"/>
<path d="M0 0 C12.39813554 9.77770942 17.11281378 23.78367319 19 39 C19.24097027 42.94687588 19.254842 46.87390557 19.22705078 50.82714844 C19.22734283 51.9408078 19.22763489 53.05446716 19.22793579 54.20187378 C19.22655616 57.83779023 19.21105992 61.47349489 19.1953125 65.109375 C19.1915775 67.64813119 19.18873283 70.18688882 19.18673706 72.72564697 C19.17991314 78.69641296 19.16419323 84.66711239 19.14403808 90.63784432 C19.12157096 97.44330301 19.11065865 104.24876552 19.10064721 111.05425215 C19.07982333 125.03621673 19.04319097 139.01808753 19 153 C6.79 153 -5.42 153 -18 153 C-18.029729 148.76349609 -18.029729 148.76349609 -18.06005859 144.44140625 C-18.12731202 135.05368046 -18.20494394 125.66606045 -18.28752708 116.27845764 C-18.3372279 110.59321476 -18.38355777 104.90798815 -18.421875 99.22265625 C-18.45906204 93.72418312 -18.50550712 88.22585548 -18.55806351 82.72750854 C-18.57643164 80.6418618 -18.59160255 78.55618408 -18.60334396 76.4704895 C-17.49715946 52.49995354 -17.49715946 52.49995354 -26.41796875 31.48828125 C-32.62754505 25.91722179 -39.01389066 25.30801885 -47.0703125 25.55859375 C-57.43195407 26.72247595 -66.14780688 33.15479992 -72.6796875 41.0234375 C-79.6769847 50.66647892 -82.12157924 61.93447606 -82.20532227 73.64575195 C-82.21522186 74.5047963 -82.22512146 75.36384064 -82.23532104 76.24891663 C-82.26682213 79.07867713 -82.29164832 81.90845439 -82.31640625 84.73828125 C-82.33698562 86.70412117 -82.35798235 88.66995677 -82.37937927 90.63578796 C-82.43449842 95.80274952 -82.48395241 100.96975034 -82.53222656 106.13677979 C-82.58251584 111.41218549 -82.6381631 116.68753438 -82.69335938 121.96289062 C-82.80081671 132.30854695 -82.90179386 142.65425171 -83 153 C-95.21 153 -107.42 153 -120 153 C-120 100.86 -120 48.72 -120 -5 C-109.11 -5 -98.22 -5 -87 -5 C-86.34 1.27 -85.68 7.54 -85 14 C-84.030625 12.824375 -83.06125 11.64875 -82.0625 10.4375 C-61.27809672 -13.13201332 -26.23717912 -16.5221531 0 0 Z " fill="#FFFFFF" transform="translate(1627,114)"/>
<path d="M0 0 C0 10.23 0 20.46 0 31 C-2.743125 30.690625 -5.48625 30.38125 -8.3125 30.0625 C-39.3074285 26.27201344 -39.3074285 26.27201344 -67.15234375 38.19140625 C-75.46943998 46.33266535 -79.53951841 59.58389397 -80 71 C-80.0515625 72.14855469 -80.103125 73.29710937 -80.15625 74.48046875 C-80.61046538 89.71371716 -78.92045227 106.19415687 -68.9375 118.3125 C-64.2294329 123.23702995 -59.4126357 125.84362177 -53 128 C-52.31808594 128.24363281 -51.63617187 128.48726562 -50.93359375 128.73828125 C-37.6072764 132.57187939 -21.73667804 129.81906674 -8.23144531 128.18359375 C-5.49619007 127.95854868 -2.7444975 128 0 128 C0 138.23 0 148.46 0 159 C-13.26860881 161.24258177 -26.07745703 162.3264196 -39.5 162.375 C-40.21444275 162.38249268 -40.9288855 162.38998535 -41.66497803 162.39770508 C-62.98967594 162.58123807 -82.56028445 157.25933991 -98.53515625 142.6875 C-116.66901915 123.7760272 -120.61886827 98.54329977 -120.18359375 73.2734375 C-119.52767118 50.35281406 -112.35185812 30.18303363 -96 14 C-95.41476562 13.39285156 -94.82953125 12.78570312 -94.2265625 12.16015625 C-74.32671112 -6.88107211 -23.98832837 -11.99416418 0 0 Z " fill="#FFFFFF" transform="translate(918,109)"/>
<path d="M0 0 C0 72.6 0 145.2 0 220 C-12.54 220 -25.08 220 -38 220 C-38 148.39 -38 76.78 -38 3 C-5 -1 -5 -1 0 0 Z " fill="#FFFFFF" transform="translate(1152,47)"/>
<path d="M0 0 C0 11.22 0 22.44 0 34 C-2.97 34.99 -5.94 35.98 -9 37 C-16.6724232 39.8301463 -23.40791849 43.15488833 -30 48 C-30.86625 48.5775 -31.7325 49.155 -32.625 49.75 C-41.47310661 58.13241679 -45.98503411 68.66072029 -46.48833179 80.77661514 C-46.59052636 85.17960058 -46.60738703 89.58036991 -46.609375 93.984375 C-46.62438164 95.89537947 -46.64111393 97.8063711 -46.65948486 99.71734619 C-46.70289191 104.70833991 -46.72309795 109.69915876 -46.73822021 114.69030762 C-46.76135569 120.69953625 -46.81375413 126.70857461 -46.86116028 132.71765137 C-46.9296725 141.81181681 -46.9613655 150.9054378 -47 160 C-59.54 160 -72.08 160 -85 160 C-85 107.86 -85 55.72 -85 2 C-74.11 2 -63.22 2 -52 2 C-51.01 9.59 -50.02 17.18 -49 25 C-46.69 22.36 -44.38 19.72 -42 17 C-29.95434347 6.52398246 -15.98358717 0 0 0 Z " fill="#FFFFFF" transform="translate(1920,107)"/>
<path d="M0 0 C0.72268066 1.27883057 0.72268066 1.27883057 1.45996094 2.58349609 C6.24563388 11.02254056 11.1896111 19.3472694 16.25 27.625 C17.75095714 30.0866569 19.25053277 32.54915409 20.75 35.01171875 C21.11708069 35.61421951 21.48416138 36.21672028 21.86236572 36.83747864 C25.49459162 42.80315521 29.08255089 48.79493425 32.65405273 54.79711914 C35.26417297 59.16667729 37.93178802 63.49218459 40.66015625 67.7890625 C41.26891602 68.75271729 41.87767578 69.71637207 42.50488281 70.70922852 C43.68674127 72.57475793 44.87716893 74.43489318 46.07714844 76.28881836 C46.60469727 77.12292236 47.13224609 77.95702637 47.67578125 78.81640625 C48.14927002 79.55318604 48.62275879 80.28996582 49.1105957 81.04907227 C50 83 50 83 49 86 C47.05208367 87.55953734 45.12000114 88.97402264 43.0625 90.375 C41.77682677 91.27139438 40.49169655 92.16856795 39.20703125 93.06640625 C38.52205566 93.54223145 37.83708008 94.01805664 37.13134766 94.50830078 C33.47410428 97.06795222 29.86500273 99.69372065 26.25 102.3125 C25.13032837 103.1178418 25.13032837 103.1178418 23.98803711 103.93945312 C19.95951936 106.83933386 15.96004881 109.77146137 11.9921875 112.75390625 C11.17717773 113.36000732 10.36216797 113.9661084 9.52246094 114.59057617 C7.95288189 115.7588097 6.39067344 116.93702779 4.83691406 118.1262207 C4.13018555 118.64917725 3.42345703 119.17213379 2.6953125 119.7109375 C2.07672363 120.17806152 1.45813477 120.64518555 0.82080078 121.12646484 C-1 122 -1 122 -3.05517578 121.82348633 C-5.27835511 120.88213761 -6.26848392 119.95681198 -7.8125 118.11328125 C-8.32433838 117.51185303 -8.83617676 116.9104248 -9.36352539 116.29077148 C-10.17358032 115.3115271 -10.17358032 115.3115271 -11 114.3125 C-11.57032959 113.63840088 -12.14065918 112.96430176 -12.72827148 112.26977539 C-13.91333564 110.86867965 -15.09486379 109.46458593 -16.27294922 108.05761719 C-18.35893367 105.57236458 -20.47125569 103.11072217 -22.58764648 100.65136719 C-24.07437136 98.92370477 -25.5573021 97.19285892 -27.0390625 95.4609375 C-27.52793945 94.88956055 -28.01681641 94.31818359 -28.52050781 93.72949219 C-29.50683594 92.5764974 -30.49316406 91.4235026 -31.47949219 90.27050781 C-32.46930854 89.11365587 -33.45954488 87.95716316 -34.45019531 86.80102539 C-35.436181 85.64849682 -36.4199344 84.49405453 -37.40136719 83.33764648 C-40.10208861 80.16558954 -42.8528712 77.05663482 -45.6796875 73.99609375 C-46.28562744 73.32892334 -46.89156738 72.66175293 -47.51586914 71.97436523 C-48.68826563 70.68598768 -49.87447938 69.41001113 -51.07592773 68.14868164 C-54.97188407 63.8294198 -54.97188407 63.8294198 -55.1015625 60.00390625 C-53.77920251 56.3978962 -52.08352306 53.18595291 -50.0625 49.9375 C-49.66135986 49.28410645 -49.26021973 48.63071289 -48.84692383 47.95751953 C-40.45054025 34.5330596 -17.38707995 0 0 0 Z " fill="#FFFFFF" transform="translate(237,192)"/>
</svg>
